<?xml version="1.0" standalone="no"?>
<!DOCTYPE svg PUBLIC "-//W3C//DTD SVG 20010904//EN"
 "http://www.w3.org/TR/2001/REC-SVG-20010904/DTD/svg10.dtd">
<svg version="1.0" xmlns="http://www.w3.org/2000/svg"
 width="75.000000pt" height="19.000000pt" viewBox="0 0 75.000000 19.000000"
 preserveAspectRatio="xMidYMid meet">

<g transform="translate(0.000000,19.000000) scale(0.100000,-0.100000)"
fill="#000000" stroke="none">
<path d="M0 95 l0 -95 375 0 375 0 0 95 0 95 -375 0 -375 0 0 -95z m720 -5 l0
-70 -348 2 -347 3 -3 68 -3 67 351 0 350 0 0 -70z"/>
<path d="M60 90 l0 -50 170 0 170 0 0 50 0 50 -170 0 -170 0 0 -50z"/>
<path d="M450 90 c0 -16 5 -30 10 -30 6 0 10 5 10 12 0 9 3 9 12 0 18 -18 23
-15 23 18 0 33 -5 36 -23 18 -9 -9 -12 -9 -12 0 0 7 -4 12 -10 12 -5 0 -10
-13 -10 -30z"/>
<path d="M520 90 c0 -24 4 -30 23 -30 16 0 18 3 8 9 -11 7 -11 9 0 14 12 5 12
7 0 15 -11 8 -11 10 0 15 8 3 4 6 -8 6 -19 1 -23 -4 -23 -29z"/>
<path d="M574 105 c-4 -8 -4 -22 0 -30 6 -17 42 -20 51 -5 3 6 -3 10 -15 10
-13 0 -20 5 -17 13 2 6 12 11 22 9 10 -2 14 1 10 7 -9 16 -45 13 -51 -4z"/>
<path d="M640 90 c0 -26 3 -30 28 -29 15 0 22 3 15 5 -7 3 -9 12 -6 20 3 8 -1
14 -8 15 -8 0 -5 4 6 9 18 8 17 9 -7 9 -25 1 -28 -3 -28 -29z"/>
</g>
</svg>
